pict_type=P: pts_time=0.033367
pict_type=P: pts_time=0.066733
pict_type=P: pts_time=0.100100
pict_type=P: pts_time=0.133467
pict_type=P: pts_time=0.166833
pict_type=P: pts_time=0.200200
pict_type=P: pts_time=0.233567
pict_type=P: pts_time=0.266933
pict_type=P: pts_time=0.300300
pict_type=P: pts_time=0.333667
pict_type=P: pts_time=0.367033
pict_type=P: pts_time=0.400400
pict_type=P: pts_time=0.433767
pict_type=P: pts_time=0.467133
pict_type=P: pts_time=0.500500
pict_type=P: pts_time=0.533867
pict_type=P: pts_time=0.567233
pict_type=P: pts_time=0.600600
pict_type=P: pts_time=0.633967
pict_type=P: pts_time=0.667333
pict_type=P: pts_time=0.700700
pict_type=P: pts_time=0.734067
pict_type=P: pts_time=0.767433
pict_type=P: pts_time=0.800800
pict_type=P: pts_time=0.834167
pict_type=P: pts_time=0.867533
pict_type=P: pts_time=0.900900
pict_type=P: pts_time=0.934267
pict_type=P: pts_time=0.967633
pict_type=P: pts_time=1.034367
pict_type=P: pts_time=1.067733
pict_type=P: pts_time=1.101100
pict_type=P: pts_time=1.134467
pict_type=P: pts_time=1.167833
pict_type=P: pts_time=1.201200
pict_type=P: pts_time=1.234567
pict_type=P: pts_time=1.267933
pict_type=P: pts_time=1.301300
pict_type=P: pts_time=1.334667
pict_type=P: pts_time=1.368033
pict_type=P: pts_time=1.401400
pict_type=P: pts_time=1.434767
pict_type=P: pts_time=1.468133
pict_type=P: pts_time=1.501500
pict_type=P: pts_time=1.534867
pict_type=P: pts_time=1.568233
pict_type=P: pts_time=1.601600
pict_type=P: pts_time=1.634967
pict_type=P: pts_time=1.668333
pict_type=P: pts_time=1.701700
pict_type=P: pts_time=1.735067
pict_type=P: pts_time=1.768433
pict_type=P: pts_time=1.801800
pict_type=P: pts_time=1.835167
pict_type=P: pts_time=1.868533
pict_type=P: pts_time=1.901900
pict_type=P: pts_time=1.935267
pict_type=P: pts_time=1.968633
pict_type=P: pts_time=2.035367
pict_type=P: pts_time=2.068733
pict_type=P: pts_time=2.102100
pict_type=P: pts_time=2.135467
pict_type=P: pts_time=2.168833
pict_type=P: pts_time=2.202200
pict_type=P: pts_time=2.235567
pict_type=P: pts_time=2.268933
pict_type=P: pts_time=2.302300
pict_type=P: pts_time=2.335667
pict_type=P: pts_time=2.369033
pict_type=P: pts_time=2.402400
pict_type=P: pts_time=2.435767
pict_type=P: pts_time=2.469133
pict_type=P: pts_time=2.502500
pict_type=P: pts_time=2.535867
pict_type=P: pts_time=2.569233
pict_type=P: pts_time=2.602600
pict_type=P: pts_time=2.635967
pict_type=P: pts_time=2.669333
pict_type=P: pts_time=2.702700
pict_type=P: pts_time=2.736067
pict_type=P: pts_time=2.769433
pict_type=P: pts_time=2.802800
pict_type=P: pts_time=2.836167
pict_type=P: pts_time=2.869533
pict_type=P: pts_time=2.902900
pict_type=P: pts_time=2.936267
pict_type=P: pts_time=2.969633
pict_type=P: pts_time=3.036367
pict_type=P: pts_time=3.069733
pict_type=P: pts_time=3.103100
pict_type=P: pts_time=3.136467
pict_type=P: pts_time=3.169833
pict_type=P: pts_time=3.203200
pict_type=P: pts_time=3.236567
pict_type=P: pts_time=3.269933
pict_type=P: pts_time=3.303300
pict_type=P: pts_time=3.336667
pict_type=P: pts_time=3.370033
pict_type=P: pts_time=3.403400
pict_type=P: pts_time=3.436767
pict_type=P: pts_time=3.470133
pict_type=P: pts_time=3.503500
pict_type=P: pts_time=3.536867
pict_type=P: pts_time=3.570233
pict_type=P: pts_time=3.603600
pict_type=P: pts_time=3.636967
pict_type=P: pts_time=3.670333
pict_type=P: pts_time=3.703700
pict_type=P: pts_time=3.737067
pict_type=P: pts_time=3.770433
pict_type=P: pts_time=3.803800
pict_type=P: pts_time=3.837167
pict_type=P: pts_time=3.870533
pict_type=P: pts_time=3.903900
pict_type=P: pts_time=3.937267
pict_type=P: pts_time=3.970633
pict_type=P: pts_time=4.037367
pict_type=P: pts_time=4.070733
pict_type=P: pts_time=4.104100
pict_type=P: pts_time=4.137467
pict_type=P: pts_time=4.170833
pict_type=P: pts_time=4.204200
pict_type=P: pts_time=4.237567
pict_type=P: pts_time=4.270933
pict_type=P: pts_time=4.304300
pict_type=P: pts_time=4.337667
pict_type=P: pts_time=4.371033
pict_type=P: pts_time=4.404400
pict_type=P: pts_time=4.437767
pict_type=P: pts_time=4.471133
pict_type=P: pts_time=4.504500
pict_type=P: pts_time=4.537867
pict_type=P: pts_time=4.571233
pict_type=P: pts_time=4.604600
pict_type=P: pts_time=4.637967
pict_type=P: pts_time=4.671333
pict_type=P: pts_time=4.704700
pict_type=P: pts_time=4.738067
pict_type=P: pts_time=4.771433
pict_type=P: pts_time=4.804800
pict_type=P: pts_time=4.838167
pict_type=P: pts_time=4.871533
pict_type=P: pts_time=4.904900
pict_type=P: pts_time=4.938267
pict_type=P: pts_time=4.971633
pict_type=P: pts_time=5.038367
pict_type=P: pts_time=5.071733
pict_type=P: pts_time=5.105100
pict_type=P: pts_time=5.138467
pict_type=P: pts_time=5.171833
pict_type=P: pts_time=5.205200
pict_type=P: pts_time=5.238567
pict_type=P: pts_time=5.271933
pict_type=P: pts_time=5.305300
pict_type=P: pts_time=5.338667
pict_type=P: pts_time=5.372033
pict_type=P: pts_time=5.405400
pict_type=P: pts_time=5.438767
pict_type=P: pts_time=5.472133
pict_type=P: pts_time=5.505500
pict_type=P: pts_time=5.538867
pict_type=P: pts_time=5.572233
pict_type=P: pts_time=5.605600
pict_type=P: pts_time=5.638967
pict_type=P: pts_time=5.672333
pict_type=P: pts_time=5.705700
pict_type=P: pts_time=5.739067
pict_type=P: pts_time=5.772433
pict_type=P: pts_time=5.805800
pict_type=P: pts_time=5.839167
pict_type=P: pts_time=5.872533
pict_type=P: pts_time=5.905900
pict_type=P: pts_time=5.939267
pict_type=P: pts_time=5.972633
pict_type=P: pts_time=6.039367
pict_type=P: pts_time=6.072733
pict_type=P: pts_time=6.106100
pict_type=P: pts_time=6.139467
pict_type=P: pts_time=6.172833
pict_type=P: pts_time=6.206200
pict_type=P: pts_time=6.239567
pict_type=P: pts_time=6.272933
pict_type=P: pts_time=6.306300
pict_type=P: pts_time=6.339667
pict_type=P: pts_time=6.373033
pict_type=P: pts_time=6.406400
pict_type=P: pts_time=6.439767
pict_type=P: pts_time=6.473133
pict_type=P: pts_time=6.506500
pict_type=P: pts_time=6.539867
pict_type=P: pts_time=6.573233
pict_type=P: pts_time=6.606600
pict_type=P: pts_time=6.639967
pict_type=P: pts_time=6.673333
pict_type=P: pts_time=6.706700
pict_type=P: pts_time=6.740067
pict_type=P: pts_time=6.773433
